<svg fill="none" height="512" viewBox="0 0 32 32" width="512" xmlns="http://www.w3.org/2000/svg"><path d="m17.9999 10.0001c0-.26521.1054-.51956.2929-.7071.1876-.18753.4419-.29289.7071-.29289h12c.2653 0 .5196.10536.7071.29289.1876.18754.2929.44189.2929.7071 0 .2652-.1053.5196-.2929.7071-.1875.1876-.4418.2929-.7071.2929h-12c-.2652 0-.5195-.1053-.7071-.2929-.1875-.1875-.2929-.4419-.2929-.7071zm13 5h-12c-.2652 0-.5195.1054-.7071.2929-.1875.1875-.2929.4419-.2929.7071s.1054.5196.2929.7071c.1876.1876.4419.2929.7071.2929h12c.2653 0 .5196-.1053.7071-.2929.1876-.1875.2929-.4419.2929-.7071s-.1053-.5196-.2929-.7071c-.1875-.1875-.4418-.2929-.7071-.2929zm0 6h-9c-.2652 0-.5195.1054-.7071.2929-.1875.1875-.2929.4419-.2929.7071s.1054.5196.2929.7071c.1876.1876.4419.2929.7071.2929h9c.2653 0 .5196-.1053.7071-.2929.1876-.1875.2929-.4419.2929-.7071s-.1053-.5196-.2929-.7071c-.1875-.1875-.4418-.2929-.7071-.2929zm-17.3625-3.2375c.9983-.761 1.7328-1.816 2.1-3.0163.3673-1.2004.3488-2.4857-.0528-3.675-.4017-1.18929-1.1662-2.22267-2.1859-2.95465-1.0198-.73198-2.2435-1.12568-3.49877-1.12568-1.25528 0-2.47894.3937-3.49872 1.12568-1.01977.73198-1.78428 1.76536-2.1859 2.95465-.40162 1.1893-.42011 2.4746-.05287 3.675.36723 1.2003 1.1017 2.2553 2.09999 3.0163-1.24318.55-2.34563 1.3744-3.22459 2.4114s-1.5116 2.2596-1.85041 3.5761c-.03761.1477-.04141.3019-.01111.4513.0303.1493.09392.2899.18611.4112.09184.1217.21092.2201.34769.2874.13676.0673.2874.1016.43981.1001h15.49997c.1524.0015.3031-.0328.4399-.1001.1367-.0673.2558-.1657.3476-.2874.0922-.1213.1558-.2619.1861-.4112.0303-.1494.0265-.3036-.0111-.4513-.3388-1.3165-.9714-2.5391-1.8504-3.5761-.8789-1.037-1.9814-1.8614-3.2246-2.4114z" fill="rgb(0,0,0)"/></svg>