<svg fill="none" height="512" viewBox="0 0 32 32" width="512" xmlns="http://www.w3.org/2000/svg"><path d="m28.9876 26.4999c-1.8659-3.2143-4.8526-5.6269-8.3875-6.775 1.6944-1.0076 3.0111-2.5435 3.7478-4.372.7368-1.8284.8528-3.8482.3304-5.74894-.5225-1.9008-1.6546-3.57748-3.2223-4.77248-1.5678-1.19501-3.4846-1.84222-5.4559-1.84222s-3.888.64721-5.4558 1.84222c-1.5678 1.195-2.69988 2.87168-3.22233 4.77248-.52246 1.90074-.4064 3.92054.33036 5.74894.73675 1.8285 2.05344 3.3644 3.74777 4.372-3.53486 1.1481-6.52156 3.5607-8.38748 6.775-.09161.1507-.14006.3236-.14006.5 0 .1763.04845.3493.14006.5.08547.1532.21071.2806.36251.3686s.32454.1334.49999.1314h24.24998c.1755.002.3482-.0434.5-.1314s.277-.2154.3625-.3686c.0916-.1507.1401-.3237.1401-.5 0-.1764-.0485-.3493-.1401-.5z" fill="rgb(0,0,0)"/></svg>