<?xml version="1.0" encoding="UTF-8"?>
<svg id="Layer_1" data-name="Layer 1" xmlns="http://www.w3.org/2000/svg" viewBox="0 0 1067 1067">
  <defs>
    <style>
      .cls-1 {
        fill: #686589;
      }

      .cls-1, .cls-2, .cls-3 {
        stroke-width: 0px;
      }

      .cls-2 {
        fill: #8582a2;
      }

      .cls-4 {
        fill: none;
        stroke: #8582a2;
        stroke-miterlimit: 10;
        stroke-width: 10px;
      }

      .cls-3 {
        fill: #5c577d;
      }
    </style>
  </defs>
  <path class="cls-1" d="M791.92,178.4v329.96c0,89.34-72.42,161.75-161.75,161.75h-193.34c-89.33,0-161.75-72.41-161.75-161.75V178.4c0-59.28,48.06-107.34,107.35-107.34h302.14c59.29,0,107.35,48.06,107.35,107.34Z"/>
  <path class="cls-3" d="M437.65,669.91h191.7v32.31l-41.77,22.42h.38v289.67c0,15.18-12.3,27.48-27.48,27.48h-53.96c-15.18,0-27.48-12.3-27.48-27.48v-289.67h.81l-42.2-22.42v-32.31Z"/>
  <path class="cls-2" d="M936.15,191.17l-342.32,342.33-60.33,60.32-342.33,342.33c-21.69-18.45-41.87-38.63-60.33-60.32l342.34-342.33,60.32-60.33,342.33-342.33c21.69,18.46,41.87,38.64,60.32,60.33Z"/>
  <path class="cls-2" d="M936.16,875.83c-18.46,21.69-38.64,41.87-60.33,60.32l-342.33-342.33L130.85,191.17c18.45-21.69,38.63-41.87,60.32-60.33l402.66,402.66,342.33,342.33Z"/>
  <path class="cls-4" d="M1062,533.5c0,130.58-47.36,250.11-125.84,342.33-18.46,21.69-38.64,41.87-60.33,60.32-92.22,78.49-211.75,125.85-342.33,125.85s-250.11-47.36-342.33-125.85c-21.69-18.45-41.87-38.63-60.33-60.32C52.36,783.61,5,664.08,5,533.5s47.36-250.11,125.85-342.33c18.45-21.69,38.63-41.87,60.32-60.33C283.39,52.36,402.92,5,533.5,5s250.11,47.36,342.33,125.84c21.69,18.46,41.87,38.64,60.32,60.33,78.49,92.22,125.85,211.74,125.85,342.33Z"/>
</svg>